<?xml version="1.0" standalone="no"?>
<!DOCTYPE svg PUBLIC "-//W3C//DTD SVG 20010904//EN"
 "http://www.w3.org/TR/2001/REC-SVG-20010904/DTD/svg10.dtd">
<svg version="1.0" xmlns="http://www.w3.org/2000/svg"
 width="214.000000pt" height="214.000000pt" viewBox="0 0 214.000000 214.000000"
 preserveAspectRatio="xMidYMid meet">
<metadata>
Created by potrace 1.11, written by Peter Selinger 2001-2013
</metadata>
<g transform="translate(0.000000,214.000000) scale(0.100000,-0.100000)"
fill="#000000" stroke="none">
<path d="M0 1070 l0 -1070 1070 0 1070 0 0 1070 0 1070 -1070 0 -1070 0 0
-1070z m2095 683 c-4 -192 -9 -350 -11 -352 -11 -12 -14 19 -16 170 l-3 164
-35 0 c-32 0 -35 3 -41 38 -8 48 -19 59 -19 19 0 -24 -6 -34 -32 -46 -29 -15
-35 -15 -65 -1 -40 19 -57 48 -49 86 7 38 -10 37 -48 -1 -24 -24 -36 -29 -76
-28 -57 2 -77 25 -65 78 7 30 6 31 -15 20 -40 -21 -74 -8 -97 38 0 2 -9 -1
-20 -7 -27 -15 -55 -23 -88 -27 -16 -3 -41 -15 -55 -28 -23 -23 -127 -66 -158
-66 -20 0 -59 -33 -55 -46 2 -7 -26 -14 -79 -18 -46 -4 -104 -9 -129 -12 -48
-5 -54 0 -126 95 -2 2 -6 1 -10 -2 -3 -4 6 -20 20 -35 15 -16 29 -39 32 -51 2
-13 9 -29 15 -36 6 -7 16 -32 23 -55 10 -34 23 -50 68 -82 l57 -40 32 19 c18
10 42 24 54 31 29 17 117 10 152 -13 l28 -18 -22 -17 c-32 -27 -42 -62 -42
-155 0 -77 -3 -90 -37 -157 -21 -41 -44 -87 -50 -103 -20 -45 -16 -139 9 -210
18 -52 20 -67 10 -77 -18 -18 -41 -1 -70 51 -65 117 -60 214 17 366 50 99 71
171 71 246 0 31 -4 39 -18 39 -22 0 -47 -25 -56 -57 -7 -22 -22 -28 -55 -23
-12 1 -91 56 -175 121 -31 25 -65 90 -66 127 0 32 -16 27 -67 -20 -60 -58
-129 -157 -171 -247 -27 -60 -33 -82 -28 -112 6 -35 51 -112 126 -214 38 -51
52 -132 26 -147 -14 -8 -15 -12 -4 -25 10 -13 9 -18 -10 -33 -12 -10 -22 -25
-22 -32 0 -8 -12 -23 -28 -35 -60 -45 -112 -209 -93 -294 18 -79 61 -183 90
-219 41 -52 79 -74 163 -94 74 -19 74 -19 174 4 54 12 128 36 163 51 35 16 71
29 80 29 17 0 139 79 211 136 25 20 55 55 67 77 23 45 46 175 33 192 -4 6 -11
29 -15 52 -7 47 -64 107 -111 119 -31 8 -71 -12 -92 -46 -9 -14 -26 -38 -39
-53 -31 -38 -47 -101 -33 -127 17 -32 64 -51 110 -44 35 6 40 4 34 -10 -9 -23
-57 -46 -97 -46 -72 0 -142 81 -139 160 2 35 27 82 90 169 9 13 19 27 22 31
13 18 77 42 116 43 54 0 125 -41 169 -99 36 -47 75 -160 76 -219 1 -51 -20
-155 -32 -155 -5 0 -15 -13 -24 -29 -8 -16 -24 -32 -35 -36 -11 -3 -27 -18
-36 -33 -22 -38 -96 -90 -152 -109 -26 -9 -77 -29 -113 -45 -36 -15 -107 -37
-158 -48 -50 -11 -114 -29 -142 -39 -94 -36 -248 3 -336 85 -51 48 -93 126
-93 175 0 22 -7 42 -19 53 -45 40 -32 248 23 381 14 33 26 68 26 77 0 9 4 20
10 23 5 3 10 19 10 35 0 16 8 42 17 58 17 29 17 29 -45 132 -34 57 -62 111
-62 121 0 23 -17 34 -33 21 -7 -6 -36 -20 -65 -31 -74 -29 -67 -6 13 44 43 26
65 46 65 58 0 14 -4 17 -17 12 -40 -17 -118 -22 -148 -10 -35 15 -30 18 72 35
39 7 77 16 84 20 21 14 -1 30 -40 30 -26 0 -44 7 -57 21 l-19 21 55 -7 c30 -3
63 -9 72 -11 10 -3 21 4 29 18 42 79 193 235 239 248 14 3 30 17 37 30 17 34
10 35 -22 6 -16 -15 -32 -26 -37 -26 -6 0 -23 -9 -39 -21 -17 -12 -37 -18 -48
-14 -10 3 -50 6 -88 6 -37 0 -89 5 -114 11 -38 9 -45 14 -41 30 3 13 0 19 -9
17 -14 -2 -61 13 -91 31 -10 6 -27 10 -38 10 -13 0 -24 10 -31 26 l-10 27 -24
-23 c-23 -22 -25 -22 -31 -4 -18 57 -22 61 -29 26 -12 -51 -25 -48 -25 6 0 27
-3 83 -6 125 l-7 77 1033 0 1032 0 -7 -347z m-462 24 c30 -26 34 -42 12 -51
-8 -3 -20 -17 -25 -31 -8 -20 -16 -25 -44 -25 -34 0 -34 0 -38 53 -2 28 -2 58
0 65 7 20 67 14 95 -11z m190 -76 c57 -7 77 -36 77 -111 0 -44 -3 -50 -32 -64
-17 -9 -56 -16 -88 -16 -64 0 -79 11 -100 71 -12 32 -11 42 5 75 23 48 44 66
70 58 11 -4 41 -9 68 -13z m-873 -13 c0 -7 -4 -19 -9 -26 -7 -11 -10 -10 -15
3 -10 26 -7 35 9 35 8 0 15 -6 15 -12z m38 -7 c3 -8 -1 -12 -9 -9 -7 2 -15 10
-17 17 -3 8 1 12 9 9 7 -2 15 -10 17 -17z m-212 -35 c8 -8 14 -20 14 -27 0 -7
12 -27 26 -46 14 -19 24 -37 21 -40 -3 -3 -12 4 -19 16 -7 12 -18 21 -25 21
-7 0 -13 8 -13 18 0 9 -7 29 -14 45 -16 30 -12 35 10 13z m1264 -2 c0 -8 -5
-12 -10 -9 -6 4 -8 11 -5 16 9 14 15 11 15 -7z m-1070 -20 c0 -8 -4 -12 -10
-9 -5 3 -10 10 -10 16 0 5 5 9 10 9 6 0 10 -7 10 -16z m-200 -76 c0 -4 -11 -2
-25 4 -14 6 -25 15 -25 19 0 4 -3 16 -6 26 -5 15 -4 15 5 3 9 -12 11 -11 11
10 1 22 3 20 20 -14 11 -22 20 -43 20 -48z m105 -38 c3 -5 2 -10 -4 -10 -5 0
-13 5 -16 10 -3 6 -2 10 4 10 5 0 13 -4 16 -10z m-205 -36 c0 -8 -4 -12 -10
-9 -5 3 -10 10 -10 16 0 5 5 9 10 9 6 0 10 -7 10 -16z m230 -2 c0 -13 -12 -22
-22 -16 -10 6 -1 24 13 24 5 0 9 -4 9 -8z"/>
<path d="M1678 1933 c6 -2 18 -2 25 0 6 3 1 5 -13 5 -14 0 -19 -2 -12 -5z"/>
</g>
</svg>
